<?xml version="1.0" encoding="utf-8"?>
<svg version="1.1" xmlns:xlink="http://www.w3.org/1999/xlink" width="32px" height="32px" xmlns="http://www.w3.org/2000/svg">
  <g transform="matrix(1 0 0 1 -134 -147 )">
    <path d="M 31.9307692307692 18.7269230769231  C 31.9230769230769 16.5423076923077  30.1346153846154 14.9538461538462  28.1461538461538 14.9538461538462  L 26.3576923076923 14.9538461538462  L 26.3576923076923 9.38846153846154  C 26.3576923076923 7.4  24.7692307692308 5.61153846153846  22.5807692307692 5.61153846153846  L 17.0192307692308 5.61153846153846  L 17.0192307692308 3.82307692307692  C 17.0192307692308 1.83461538461539  15.4307692307692 0.0461538461538474  13.2423076923077 0.0461538461538474  C 11.2538461538462 0.0461538461538474  9.46538461538462 1.63461538461539  9.46538461538462 3.82307692307692  L 9.46538461538462 5.61153846153846  L 3.90384615384615 5.61153846153846  C 1.91538461538462 5.61153846153846  0.126923076923077 7.2  0.126923076923077 9.38846153846154  L 0.126923076923077 14.9538461538462  L 1.91538461538462 14.9538461538462  C 3.90384615384615 14.9538461538462  5.69230769230769 16.5423076923077  5.69230769230769 18.7307692307692  C 5.69230769230769 20.7192307692308  4.10384615384615 22.5076923076923  1.91538461538462 22.5076923076923  L 0.126923076923077 22.5076923076923  L 0.126923076923077 28.0730769230769  C 0.126923076923077 30.0615384615385  1.71538461538462 31.85  3.90384615384615 31.85  L 9.46923076923077 31.85  L 9.46923076923077 30.0615384615385  C 9.46923076923077 28.0730769230769  11.0576923076923 26.2846153846154  13.2461538461538 26.2846153846154  C 15.2346153846154 26.2846153846154  17.0230769230769 27.8730769230769  17.0230769230769 30.0615384615385  L 17.0230769230769 31.8461538461538  L 22.5884615384615 31.8461538461538  C 24.5769230769231 31.8461538461538  26.3653846153846 30.2576923076923  26.3653846153846 28.0692307692308  L 26.3653846153846 22.5038461538462  L 28.1538461538462 22.5038461538462  C 30.1423076923077 22.5038461538462  31.9307692307692 20.9153846153846  31.9307692307692 18.7269230769231  Z " fill-rule="nonzero" fill="#1411f7" stroke="none" transform="matrix(1 0 0 1 134 147 )" />
  </g>
</svg>